<svg width="81" height="81" viewBox="0 0 81 81" fill="none" xmlns="http://www.w3.org/2000/svg">
<g filter="url(#filter0_d_6_82)">
<rect x="75.2292" y="70.9996" width="70" height="70" rx="5" transform="rotate(179.812 75.2292 70.9996)" fill="#FBCD00"/>
<rect x="74.7276" y="70.5013" width="69" height="69" rx="4.5" transform="rotate(179.812 74.7276 70.5013)" stroke="url(#paint0_linear_6_82)" stroke-opacity="0.2"/>
<path d="M31.7277 37.0201C31.0314 36.6434 31.0281 35.6454 31.7219 35.2642L55.5902 22.1477C56.2553 21.7821 57.0693 22.2618 57.0718 23.0208L57.1573 49.097C57.1598 49.8559 56.349 50.3409 55.6815 49.9798L31.7277 37.0201Z" fill="black" fill-opacity="0.85"/>
<path d="M31.9656 36.5803C31.6175 36.392 31.6158 35.893 31.9627 35.7024L55.831 22.5859C56.1636 22.4031 56.5705 22.6429 56.5718 23.0224L56.6573 49.0986C56.6585 49.4781 56.2532 49.7206 55.9194 49.54L31.9656 36.5803Z" stroke="url(#paint1_linear_6_82)" stroke-opacity="0.2"/>
<rect x="30.1606" y="50.1473" width="7" height="28" rx="1" transform="rotate(179.812 30.1606 50.1473)" fill="black" fill-opacity="0.85"/>
<rect x="29.6589" y="49.649" width="6" height="27" rx="0.5" transform="rotate(179.812 29.6589 49.649)" stroke="url(#paint2_linear_6_82)" stroke-opacity="0.2"/>
</g>
<defs>
<filter id="filter0_d_6_82" x="0.0163879" y="0.0163574" width="80.1965" height="80.1965" filterUnits="userSpaceOnUse" color-interpolation-filters="sRGB">
<feFlood flood-opacity="0" result="BackgroundImageFix"/>
<feColorMatrix in="SourceAlpha" type="matrix" values="0 0 0 0 0 0 0 0 0 0 0 0 0 0 0 0 0 0 127 0" result="hardAlpha"/>
<feOffset dy="4"/>
<feGaussianBlur stdDeviation="2.5"/>
<feComposite in2="hardAlpha" operator="out"/>
<feColorMatrix type="matrix" values="0 0 0 0 0 0 0 0 0 0 0 0 0 0 0 0 0 0 0.25 0"/>
<feBlend mode="normal" in2="BackgroundImageFix" result="effect1_dropShadow_6_82"/>
<feBlend mode="normal" in="SourceGraphic" in2="effect1_dropShadow_6_82" result="shape"/>
</filter>
<linearGradient id="paint0_linear_6_82" x1="110.229" y1="70.9996" x2="110.229" y2="141" gradientUnits="userSpaceOnUse">
<stop stop-color="white"/>
<stop offset="1" stop-color="white" stop-opacity="0"/>
</linearGradient>
<linearGradient id="paint1_linear_6_82" x1="30.1147" y1="36.1474" x2="66.1145" y2="36.0293" gradientUnits="userSpaceOnUse">
<stop stop-color="white"/>
<stop offset="1" stop-color="white" stop-opacity="0"/>
</linearGradient>
<linearGradient id="paint2_linear_6_82" x1="33.6606" y1="50.1473" x2="33.6606" y2="78.1473" gradientUnits="userSpaceOnUse">
<stop stop-color="white"/>
<stop offset="1" stop-color="white" stop-opacity="0"/>
</linearGradient>
</defs>
</svg>
