<svg width="81" height="80" viewBox="0 0 81 80" fill="none" xmlns="http://www.w3.org/2000/svg">
<g filter="url(#filter0_d_6_81)">
<rect x="5.22928" y="1" width="70" height="70" rx="5" fill="#FBCD00"/>
<rect x="5.72928" y="1.5" width="69" height="69" rx="4.5" stroke="url(#paint0_linear_6_81)" stroke-opacity="0.2"/>
<path d="M48.6192 35.122C49.3142 35.501 49.3142 36.499 48.6192 36.878L24.708 49.9161C24.0416 50.2795 23.2293 49.7972 23.2293 49.0382L23.2293 22.9618C23.2293 22.2028 24.0416 21.7205 24.708 22.0839L48.6192 35.122Z" fill="black" fill-opacity="0.85"/>
<path d="M48.3798 35.561C48.7273 35.7505 48.7273 36.2495 48.3798 36.439L24.4686 49.4771C24.1355 49.6588 23.7293 49.4177 23.7293 49.0382L23.7293 22.9618C23.7293 22.5823 24.1355 22.3412 24.4686 22.5229L48.3798 35.561Z" stroke="url(#paint1_linear_6_81)" stroke-opacity="0.2"/>
<rect x="50.2293" y="22" width="7" height="28" rx="1" fill="black" fill-opacity="0.85"/>
<rect x="50.7293" y="22.5" width="6" height="27" rx="0.5" stroke="url(#paint2_linear_6_81)" stroke-opacity="0.2"/>
</g>
<defs>
<filter id="filter0_d_6_81" x="0.229279" y="0" width="80" height="80" filterUnits="userSpaceOnUse" color-interpolation-filters="sRGB">
<feFlood flood-opacity="0" result="BackgroundImageFix"/>
<feColorMatrix in="SourceAlpha" type="matrix" values="0 0 0 0 0 0 0 0 0 0 0 0 0 0 0 0 0 0 127 0" result="hardAlpha"/>
<feOffset dy="4"/>
<feGaussianBlur stdDeviation="2.5"/>
<feComposite in2="hardAlpha" operator="out"/>
<feColorMatrix type="matrix" values="0 0 0 0 0 0 0 0 0 0 0 0 0 0 0 0 0 0 0.25 0"/>
<feBlend mode="normal" in2="BackgroundImageFix" result="effect1_dropShadow_6_81"/>
<feBlend mode="normal" in="SourceGraphic" in2="effect1_dropShadow_6_81" result="shape"/>
</filter>
<linearGradient id="paint0_linear_6_81" x1="40.2293" y1="1" x2="40.2293" y2="71" gradientUnits="userSpaceOnUse">
<stop stop-color="white"/>
<stop offset="1" stop-color="white" stop-opacity="0"/>
</linearGradient>
<linearGradient id="paint1_linear_6_81" x1="50.2293" y1="36" x2="14.2293" y2="36" gradientUnits="userSpaceOnUse">
<stop stop-color="white"/>
<stop offset="1" stop-color="white" stop-opacity="0"/>
</linearGradient>
<linearGradient id="paint2_linear_6_81" x1="53.7293" y1="22" x2="53.7293" y2="50" gradientUnits="userSpaceOnUse">
<stop stop-color="white"/>
<stop offset="1" stop-color="white" stop-opacity="0"/>
</linearGradient>
</defs>
</svg>
