<svg width="81" height="80" viewBox="0 0 81 80" fill="none" xmlns="http://www.w3.org/2000/svg">
<g filter="url(#filter0_d_6_80)">
<rect x="5.22925" y="1" width="70" height="70" rx="5" fill="#FE6301"/>
<rect x="5.72925" y="1.5" width="69" height="69" rx="4.5" stroke="url(#paint0_linear_6_80)" stroke-opacity="0.2"/>
<path d="M56.6191 35.122C57.3141 35.501 57.3141 36.499 56.6191 36.878L32.708 49.9161C32.0416 50.2795 31.2292 49.7972 31.2292 49.0382L31.2292 22.9618C31.2292 22.2028 32.0416 21.7205 32.708 22.0839L56.6191 35.122Z" fill="black" fill-opacity="0.85"/>
<path d="M56.3798 35.561C56.7273 35.7505 56.7273 36.2495 56.3798 36.439L32.4686 49.4771C32.1354 49.6588 31.7292 49.4177 31.7292 49.0382L31.7292 22.9618C31.7292 22.5823 32.1354 22.3412 32.4686 22.5229L56.3798 35.561Z" stroke="url(#paint1_linear_6_80)" stroke-opacity="0.2"/>
</g>
<defs>
<filter id="filter0_d_6_80" x="0.229248" y="0" width="80" height="80" filterUnits="userSpaceOnUse" color-interpolation-filters="sRGB">
<feFlood flood-opacity="0" result="BackgroundImageFix"/>
<feColorMatrix in="SourceAlpha" type="matrix" values="0 0 0 0 0 0 0 0 0 0 0 0 0 0 0 0 0 0 127 0" result="hardAlpha"/>
<feOffset dy="4"/>
<feGaussianBlur stdDeviation="2.5"/>
<feComposite in2="hardAlpha" operator="out"/>
<feColorMatrix type="matrix" values="0 0 0 0 0 0 0 0 0 0 0 0 0 0 0 0 0 0 0.25 0"/>
<feBlend mode="normal" in2="BackgroundImageFix" result="effect1_dropShadow_6_80"/>
<feBlend mode="normal" in="SourceGraphic" in2="effect1_dropShadow_6_80" result="shape"/>
</filter>
<linearGradient id="paint0_linear_6_80" x1="40.2292" y1="1" x2="40.2292" y2="71" gradientUnits="userSpaceOnUse">
<stop stop-color="white"/>
<stop offset="1" stop-color="white" stop-opacity="0"/>
</linearGradient>
<linearGradient id="paint1_linear_6_80" x1="58.2292" y1="36" x2="22.2292" y2="36" gradientUnits="userSpaceOnUse">
<stop stop-color="white"/>
<stop offset="1" stop-color="white" stop-opacity="0"/>
</linearGradient>
</defs>
</svg>
