<?xml version="1.0" standalone="no"?>
<!DOCTYPE svg PUBLIC "-//W3C//DTD SVG 20010904//EN"
 "http://www.w3.org/TR/2001/REC-SVG-20010904/DTD/svg10.dtd">
<svg version="1.0" xmlns="http://www.w3.org/2000/svg"
 width="752.000000pt" height="752.000000pt" viewBox="0 0 752.000000 752.000000"
 preserveAspectRatio="xMidYMid meet">
<metadata>
Created by potrace 1.14, written by Peter Selinger 2001-2017
</metadata>
<g transform="translate(0.000000,752.000000) scale(0.100000,-0.100000)"
fill="#000000" stroke="none">
<path d="M3538 7516 c-1 -2 -46 -7 -98 -10 -52 -4 -111 -9 -130 -12 -38 -5
-158 -23 -205 -30 -45 -7 -245 -52 -282 -63 -18 -5 -33 -8 -33 -6 0 3 -12 0
-27 -6 -16 -6 -66 -22 -113 -36 -202 -58 -509 -190 -725 -311 -151 -84 -364
-228 -515 -348 -117 -93 -417 -380 -490 -469 -14 -17 -45 -55 -70 -85 -104
-126 -177 -229 -305 -430 -208 -325 -408 -845 -479 -1245 -3 -16 -8 -41 -11
-55 -3 -14 -7 -41 -9 -60 -6 -47 -16 -118 -21 -155 -27 -185 -27 -715 0 -877
2 -13 9 -59 15 -103 15 -110 51 -293 71 -368 6 -23 13 -49 14 -57 8 -35 88
-289 107 -335 91 -227 185 -427 258 -550 16 -27 37 -63 46 -80 42 -77 193
-293 290 -415 124 -157 414 -450 562 -568 198 -158 351 -261 567 -380 77 -42
142 -77 145 -78 3 0 41 -17 85 -38 381 -179 811 -293 1260 -333 166 -15 641
-8 756 12 13 2 60 9 105 15 44 6 91 13 105 16 13 2 49 9 79 15 219 41 568 149
745 229 22 10 63 28 90 40 380 169 765 439 1085 759 171 172 187 189 281 306
390 489 665 1085 765 1660 7 39 32 211 38 251 29 225 29 665 0 889 -14 111
-36 242 -59 345 -14 63 -27 126 -30 140 -15 69 -88 297 -131 410 -63 163 -156
364 -229 490 -21 36 -46 81 -57 100 -118 207 -347 499 -558 711 -183 184 -209
207 -360 324 -546 426 -1215 699 -1885 770 -33 4 -71 9 -85 12 -27 5 -556 14
-562 9z m412 -1966 c11 0 15 -14 16 -60 1 -39 -2 -58 -9 -53 -6 4 -7 1 -1 -8
5 -8 9 -70 10 -139 1 -69 2 -128 3 -131 0 -3 39 -5 85 -5 70 1 83 -1 81 -14
-1 -8 -8 -14 -15 -12 -6 1 -8 -3 -5 -9 8 -13 30 4 30 24 0 15 64 16 84 2 11
-7 13 -7 7 3 -4 7 -2 12 8 12 10 0 13 -7 11 -21 -3 -12 -1 -18 3 -15 4 4 7 13
7 19 0 5 6 12 14 15 9 3 11 0 6 -8 -6 -10 -4 -11 6 -4 22 14 63 11 77 -6 10
-13 11 -12 5 5 -6 18 -5 19 12 5 10 -8 16 -10 12 -4 -8 14 65 14 76 -1 4 -5 7
13 7 40 0 28 0 58 1 68 0 28 0 110 0 134 l-1 22 43 -18 c79 -34 242 -134 327
-200 276 -214 473 -479 596 -801 20 -52 37 -101 39 -110 2 -8 13 -53 24 -100
38 -159 49 -266 46 -450 -2 -96 -5 -186 -8 -200 -3 -14 -8 -38 -10 -55 -45
-293 -174 -588 -365 -830 -68 -87 -227 -245 -310 -309 -216 -166 -481 -287
-744 -341 -9 -2 -38 -7 -65 -11 -26 -3 -57 -8 -68 -10 -11 -2 -66 -7 -122 -10
l-102 -6 0 423 c0 233 0 467 -1 519 l0 96 -27 0 c-99 1 -248 43 -341 96 -177
101 -297 250 -362 448 -29 91 -44 229 -25 242 7 5 6 8 -1 8 -6 0 -9 14 -7 33
2 17 4 40 4 50 0 9 3 16 7 13 4 -2 7 9 8 26 2 40 35 148 46 148 5 0 7 3 5 8
-8 12 12 54 22 47 5 -3 13 0 17 6 4 8 3 9 -4 5 -7 -4 -12 -5 -12 -3 0 18 88
147 101 147 4 0 11 9 14 21 4 11 9 19 11 16 3 -2 22 12 43 32 44 41 87 72 97
70 4 0 10 4 13 9 9 13 111 64 111 55 0 -5 4 -2 8 5 11 16 66 21 67 5 0 -6 3
-15 7 -18 4 -4 5 4 3 18 -4 20 0 26 20 29 14 3 25 1 25 -6 0 -6 4 -5 9 3 6 9
32 16 70 19 34 2 64 8 67 13 3 5 5 237 5 515 l0 506 87 -5 c48 -4 94 -7 102
-7z"/>
<path d="M4315 5120 c3 -5 8 -10 11 -10 2 0 4 5 4 10 0 6 -5 10 -11 10 -5 0
-7 -4 -4 -10z"/>
<path d="M4396 5113 c-6 -14 -5 -15 5 -6 7 7 10 15 7 18 -3 3 -9 -2 -12 -12z"/>
<path d="M4430 5119 c0 -5 5 -7 10 -4 6 3 10 8 10 11 0 2 -4 4 -10 4 -5 0 -10
-5 -10 -11z"/>
<path d="M4036 5087 c3 -10 9 -15 12 -12 3 3 0 11 -7 18 -10 9 -11 8 -5 -6z"/>
<path d="M3570 4441 c0 -6 4 -13 10 -16 6 -3 7 1 4 9 -7 18 -14 21 -14 7z"/>
<path d="M3385 4400 c-3 -6 1 -7 9 -4 18 7 21 14 7 14 -6 0 -13 -4 -16 -10z"/>
<path d="M3346 4378 c3 -5 10 -6 15 -3 13 9 11 12 -6 12 -8 0 -12 -4 -9 -9z"/>
<path d="M3336 4338 c3 -5 10 -6 15 -3 13 9 11 12 -6 12 -8 0 -12 -4 -9 -9z"/>
</g>
</svg>
